<svg id="Capa_1" enable-background="new 0 0 497 497" height="512" viewBox="0 0 497 497" width="512" xmlns="http://www.w3.org/2000/svg"><g><path d="m151 127.5h-15v-48.393c0-10.017 3.9-19.434 10.983-26.517l21.517-21.516 10.606 10.606-21.516 21.518c-4.25 4.249-6.59 9.899-6.59 15.909z" fill="#b3b3b3"/><path d="m361 127.5h-15v-48.393c0-6.01-2.34-11.66-6.59-15.909l-21.517-21.518 10.607-10.606 21.517 21.518c7.083 7.082 10.983 16.499 10.983 26.515z" fill="#b3b3b3"/><path d="m205.806 4.375c-5.834-5.834-15.38-5.834-21.213 0l-16.093 16.093c-5.834 5.834-5.834 15.38 0 21.213s15.38 5.834 21.213 0l16.092-16.093c5.834-5.833 5.834-15.379.001-21.213z" fill="#4f4f4f"/><path d="m291.194 4.375c5.834-5.834 15.38-5.834 21.213 0l16.093 16.093c5.834 5.834 5.834 15.38 0 21.213s-15.38 5.834-21.213 0l-16.093-16.093c-5.833-5.833-5.833-15.379 0-21.213z" fill="#353535"/><path d="m248.5 255v227h104.025l17.284-227z" fill="#ff5a35"/><path d="m127.525 255 17.284 227h177.716l17.284-227z" fill="#ff7a3c"/><path d="m368.5 240-60 15 30 15h30l30-30z" fill="#353535"/><path d="m338.5 270h-210l-30-30h270z" fill="#4f4f4f"/><path d="m368.5 120-60 60 60 60h30v-112.5c0-4.142-3.358-7.5-7.5-7.5z" fill="#4f4f4f"/><path d="m368.5 240h-270v-112.5c0-4.142 3.358-7.5 7.5-7.5h262.5z" fill="#696969"/><circle cx="248.5" cy="150" fill="#ffba48" r="60"/><path d="m248.5 120-20 30 20 30c16.569 0 30-13.431 30-30s-13.431-30-30-30z" fill="#405acc"/><path d="m218.5 150c0 16.569 13.431 30 30 30v-60c-16.569 0-30 13.431-30 30z" fill="#4271db"/><path d="m353.667 467h-30l30 30h21.215c5.16 0 8.804-5.099 7.091-9.965-4.109-11.67-15.231-20.035-28.306-20.035z" fill="#ff7a3c"/><path d="m323.667 467h-180c-13.075 0-24.197 8.365-28.305 20.035-1.713 4.867 1.931 9.965 7.091 9.965h231.215c-.001-16.569-13.433-30-30.001-30z" fill="#ff9a42"/></g></svg>